<svg width="25" height="27" viewBox="0 0 25 27" fill="none" xmlns="http://www.w3.org/2000/svg">
<path d="M8.41663 6.55747C8.00663 6.55747 7.66663 6.17978 7.66663 5.72434V2.39184C7.66663 1.9364 8.00663 1.55872 8.41663 1.55872C8.82663 1.55872 9.16663 1.9364 9.16663 2.39184V5.72434C9.16663 6.17978 8.82663 6.55747 8.41663 6.55747Z" fill="#105560"/>
<path d="M15.9166 6.55747C15.5066 6.55747 15.1666 6.17978 15.1666 5.72434V2.39184C15.1666 1.9364 15.5066 1.55872 15.9166 1.55872C16.3266 1.55872 16.6666 1.9364 16.6666 2.39184V5.72434C16.6666 6.17978 16.3266 6.55747 15.9166 6.55747Z" fill="#105560"/>
<path d="M12.1662 15.822C12.6862 15.822 13.0662 15.4777 13.0662 14.9333C13.0662 14.3779 12.6862 14.0558 12.1662 14.0558C11.6462 14.0558 11.2662 14.3779 11.2662 14.9333C11.2662 15.4777 11.6462 15.822 12.1662 15.822Z" fill="#105560"/>
<path d="M12.167 19.0546C12.7966 19.0546 13.307 18.592 13.307 18.0215C13.307 17.4509 12.7966 16.9884 12.167 16.9884C11.5374 16.9884 11.027 17.4509 11.027 18.0215C11.027 18.592 11.5374 19.0546 12.167 19.0546Z" fill="#105560"/>
<path d="M19.7366 5.16857C19.0766 4.62426 18.1266 5.14636 18.1266 6.06835V6.17943C18.1266 7.47911 17.2866 8.67881 16.1166 8.81211C14.7666 8.96762 13.6266 7.79014 13.6266 6.32384V5.16857C13.6266 4.55761 13.1766 4.05774 12.6266 4.05774H11.7066C11.1566 4.05774 10.7066 4.55761 10.7066 5.16857V6.32384C10.7066 7.2014 10.2966 7.97898 9.67663 8.41221C9.58663 8.47886 9.48663 8.5344 9.38663 8.58994C9.29663 8.64548 9.19663 8.68991 9.08663 8.72324C8.96663 8.76767 8.83663 8.801 8.69663 8.81211C8.53663 8.83432 8.37663 8.83432 8.21663 8.81211C8.07663 8.801 7.94663 8.76767 7.82663 8.72324C7.72663 8.68991 7.62663 8.64548 7.52663 8.58994C7.42663 8.5344 7.32663 8.47886 7.23663 8.41221C6.60663 7.92344 6.20663 7.07921 6.20663 6.17943V6.06835C6.20663 5.21301 5.38663 4.70202 4.73663 5.0686C4.72663 5.07971 4.71663 5.07971 4.70663 5.09081C4.66663 5.11303 4.63663 5.13525 4.59663 5.16857C4.56663 5.2019 4.52663 5.22411 4.49663 5.25744C4.21663 5.50182 3.96663 5.77953 3.75663 6.07946C3.64663 6.21276 3.55663 6.35716 3.47663 6.50157C3.46663 6.51268 3.45663 6.52379 3.44663 6.54601C3.35663 6.69041 3.27663 6.85704 3.20663 7.01256C3.18663 7.03477 3.17663 7.04588 3.17663 7.0681C3.11663 7.2014 3.05663 7.3347 3.01663 7.47911C2.98663 7.53465 2.97663 7.57908 2.95663 7.63462C2.89663 7.80125 2.85663 7.96787 2.81663 8.1345C2.77663 8.29001 2.74663 8.45664 2.72663 8.62326C2.70663 8.74546 2.69663 8.86765 2.68663 9.00095C2.67663 9.15646 2.66663 9.31198 2.66663 9.4675V19.1984C2.66663 22.1865 4.84663 24.6082 7.53663 24.6082H16.7966C19.4866 24.6082 21.6666 22.1865 21.6666 19.1984V9.4675C21.6666 7.70127 20.9066 6.15721 19.7366 5.16857ZM12.1666 20.4425C10.6166 20.4425 9.66663 19.5872 9.66663 18.2098C9.66663 17.4544 10.0166 16.799 10.6266 16.4102C10.1866 16.0658 9.89663 15.5549 9.89663 14.855C9.89663 13.411 10.9366 12.6667 12.1666 12.6667C13.3966 12.6667 14.4266 13.411 14.4266 14.855C14.4266 15.5549 14.1466 16.0658 13.6966 16.4102C14.3166 16.799 14.6666 17.4544 14.6666 18.2098C14.6666 19.5872 13.7066 20.4425 12.1666 20.4425Z" fill="#105560"/>
</svg>
