<svg width="25" height="27" viewBox="0 0 25 27" fill="none" xmlns="http://www.w3.org/2000/svg">
<path d="M8.41675 6.42465C8.00675 6.42465 7.66675 6.04697 7.66675 5.59153V2.25903C7.66675 1.80359 8.00675 1.4259 8.41675 1.4259C8.82675 1.4259 9.16675 1.80359 9.16675 2.25903V5.59153C9.16675 6.04697 8.82675 6.42465 8.41675 6.42465Z" fill="#939393"/>
<path d="M15.9167 6.42465C15.5067 6.42465 15.1667 6.04697 15.1667 5.59153V2.25903C15.1667 1.80359 15.5067 1.4259 15.9167 1.4259C16.3267 1.4259 16.6667 1.80359 16.6667 2.25903V5.59153C16.6667 6.04697 16.3267 6.42465 15.9167 6.42465Z" fill="#939393"/>
<path d="M12.1664 15.6892C12.6864 15.6892 13.0664 15.3448 13.0664 14.8005C13.0664 14.2451 12.6864 13.923 12.1664 13.923C11.6464 13.923 11.2664 14.2451 11.2664 14.8005C11.2664 15.3448 11.6464 15.6892 12.1664 15.6892Z" fill="#939393"/>
<path d="M12.1671 18.9217C12.7967 18.9217 13.3071 18.4592 13.3071 17.8887C13.3071 17.3181 12.7967 16.8556 12.1671 16.8556C11.5375 16.8556 11.0271 17.3181 11.0271 17.8887C11.0271 18.4592 11.5375 18.9217 12.1671 18.9217Z" fill="#939393"/>
<path d="M19.7367 5.03576C19.0767 4.49145 18.1267 5.01354 18.1267 5.93554V6.04662C18.1267 7.34629 17.2867 8.54599 16.1167 8.67929C14.7667 8.83481 13.6267 7.65733 13.6267 6.19103V5.03576C13.6267 4.4248 13.1767 3.92493 12.6267 3.92493H11.7067C11.1567 3.92493 10.7067 4.4248 10.7067 5.03576V6.19103C10.7067 7.06859 10.2967 7.84617 9.67675 8.27939C9.58675 8.34604 9.48675 8.40159 9.38675 8.45713C9.29675 8.51267 9.19675 8.5571 9.08675 8.59043C8.96675 8.63486 8.83675 8.66819 8.69675 8.67929C8.53675 8.70151 8.37675 8.70151 8.21675 8.67929C8.07675 8.66819 7.94675 8.63486 7.82675 8.59043C7.72675 8.5571 7.62675 8.51267 7.52675 8.45713C7.42675 8.40159 7.32675 8.34604 7.23675 8.27939C6.60675 7.79063 6.20675 6.94639 6.20675 6.04662V5.93554C6.20675 5.08019 5.38675 4.56921 4.73675 4.93578C4.72675 4.94689 4.71675 4.94689 4.70675 4.958C4.66675 4.98022 4.63675 5.00244 4.59675 5.03576C4.56675 5.06909 4.52675 5.0913 4.49675 5.12463C4.21675 5.36901 3.96675 5.64672 3.75675 5.94664C3.64675 6.07994 3.55675 6.22435 3.47675 6.36876C3.46675 6.37987 3.45675 6.39098 3.44675 6.41319C3.35675 6.5576 3.27675 6.72423 3.20675 6.87974C3.18675 6.90196 3.17675 6.91307 3.17675 6.93529C3.11675 7.06859 3.05675 7.20189 3.01675 7.34629C2.98675 7.40184 2.97675 7.44627 2.95675 7.50181C2.89675 7.66844 2.85675 7.83506 2.81675 8.00169C2.77675 8.1572 2.74675 8.32383 2.72675 8.49045C2.70675 8.61264 2.69675 8.73484 2.68675 8.86813C2.67675 9.02365 2.66675 9.17917 2.66675 9.33469V19.0656C2.66675 22.0537 4.84675 24.4753 7.53675 24.4753H16.7967C19.4867 24.4753 21.6667 22.0537 21.6667 19.0656V9.33469C21.6667 7.56846 20.9067 6.0244 19.7367 5.03576ZM12.1667 20.3097C10.6167 20.3097 9.66675 19.4544 9.66675 18.0769C9.66675 17.3216 10.0167 16.6662 10.6267 16.2774C10.1867 15.933 9.89675 15.4221 9.89675 14.7222C9.89675 13.2781 10.9367 12.5339 12.1667 12.5339C13.3967 12.5339 14.4267 13.2781 14.4267 14.7222C14.4267 15.4221 14.1467 15.933 13.6967 16.2774C14.3167 16.6662 14.6667 17.3216 14.6667 18.0769C14.6667 19.4544 13.7067 20.3097 12.1667 20.3097Z" fill="#939393"/>
</svg>
