<svg width="21" height="20" viewBox="0 0 21 20" fill="none" xmlns="http://www.w3.org/2000/svg">
<path d="M10.2642 -0.000976562C4.74116 -0.000976562 0.26416 4.47602 0.26416 9.99902C0.26416 11.271 0.526154 12.56 0.983154 13.718L1.76416 15.311C2.25916 16.34 2.08517 17.31 1.42017 18.499C1.05317 19.157 1.51116 19.95 2.26416 19.968C3.28116 19.991 4.90816 19.573 6.20216 19.093C7.39516 19.644 8.93216 19.999 10.2642 19.999C15.7872 19.999 20.2642 15.522 20.2642 9.99902C20.2642 4.47602 15.7872 -0.000976562 10.2642 -0.000976562ZM6.26416 8.99902C6.81616 8.99902 7.26416 9.44702 7.26416 9.99902C7.26416 10.551 6.81616 10.999 6.26416 10.999C5.71216 10.999 5.26416 10.551 5.26416 9.99902C5.26416 9.44702 5.71216 8.99902 6.26416 8.99902ZM10.2642 8.99902C10.8162 8.99902 11.2642 9.44702 11.2642 9.99902C11.2642 10.551 10.8162 10.999 10.2642 10.999C9.71216 10.999 9.26416 10.551 9.26416 9.99902C9.26416 9.44702 9.71216 8.99902 10.2642 8.99902ZM14.2642 8.99902C14.8162 8.99902 15.2642 9.44702 15.2642 9.99902C15.2642 10.551 14.8162 10.999 14.2642 10.999C13.7122 10.999 13.2642 10.551 13.2642 9.99902C13.2642 9.44702 13.7122 8.99902 14.2642 8.99902Z" fill="#939393"/>
</svg>
