<svg width="24" height="25" viewBox="0 0 24 25" fill="none" xmlns="http://www.w3.org/2000/svg">
<g clip-path="url(#clip0_281_4873)">
<path d="M12 1.5C12.6566 1.5 13.3068 1.62933 13.9134 1.8806C14.52 2.13188 15.0712 2.50017 15.5355 2.96447C15.9998 3.42876 16.3681 3.97995 16.6194 4.58658C16.8707 5.19321 17 5.84339 17 6.5V10.5C17 11.8261 16.4732 13.0979 15.5355 14.0355C14.5978 14.9732 13.3261 15.5 12 15.5C10.6739 15.5 9.40214 14.9732 8.46446 14.0355C7.52678 13.0979 6.99999 11.8261 6.99999 10.5V6.5C6.99999 5.17392 7.52678 3.90215 8.46446 2.96447C9.40214 2.02678 10.6739 1.5 12 1.5ZM3.05499 11.5H5.06999C5.31228 13.1648 6.14586 14.6867 7.41823 15.7873C8.69059 16.8879 10.3167 17.4936 11.999 17.4936C13.6813 17.4936 15.3074 16.8879 16.5798 15.7873C17.8521 14.6867 18.6857 13.1648 18.928 11.5H20.944C20.7166 13.5287 19.8066 15.4199 18.3632 16.8635C16.9198 18.3071 15.0287 19.2174 13 19.445V23.5H11V19.445C8.97113 19.2176 7.07978 18.3074 5.63617 16.8638C4.19256 15.4202 3.28241 13.5289 3.05499 11.5Z" fill="#105560"/>
</g>
<defs>
<clipPath id="clip0_281_4873">
<rect width="24" height="24" fill="white" transform="translate(0 0.5)"/>
</clipPath>
</defs>
</svg>
