<svg width="20" height="21" viewBox="0 0 20 21" fill="none" xmlns="http://www.w3.org/2000/svg">
<path d="M7.29982 19.2733V16.2156C7.29982 15.4351 7.93721 14.8023 8.72347 14.8023H11.5976C11.9752 14.8023 12.3373 14.9512 12.6043 15.2163C12.8713 15.4813 13.0213 15.8408 13.0213 16.2156V19.2733C13.0189 19.5978 13.1471 19.9099 13.3774 20.1402C13.6077 20.3705 13.9211 20.5 14.248 20.5H16.2089C17.1247 20.5023 18.0038 20.1428 18.6522 19.5008C19.3006 18.8588 19.665 17.987 19.665 17.0778V8.36686C19.665 7.63246 19.3371 6.93584 18.7697 6.46467L12.0991 1.17587C10.9387 0.248562 9.27615 0.278502 8.15043 1.24698L1.63205 6.46467C1.03778 6.92195 0.682591 7.62064 0.665039 8.36686V17.0689C0.665039 18.9639 2.21242 20.5 4.12121 20.5H6.03733C6.71627 20.5 7.26804 19.9562 7.27296 19.2822L7.29982 19.2733Z" fill="#9E9E9E"/>
</svg>
